<svg width="157" height="284" viewBox="0 0 157 284" fill="none" xmlns="http://www.w3.org/2000/svg">
<path d="M80.9635 81.7738C80.9635 81.7738 68.9905 25.2389 92.441 3.09668" stroke="black" stroke-width="5.66935" stroke-linecap="round" stroke-linejoin="round"/>
<path d="M152.782 215.797C152.782 280.994 82.0142 280.618 77.891 280.618C73.7678 280.618 3 280.994 3 215.797C3 215.182 3 214.588 3 213.973C3.67398 176.646 24.2898 159.559 32.4569 140.093C42.2494 116.742 35.0338 68.0169 74.1841 66.5302H76.1664C76.7809 66.5302 77.3756 66.5302 77.9901 66.5302C78.6046 66.5302 79.1795 66.5302 79.8138 66.5302H81.7961C120.946 68.0367 113.731 116.781 123.523 140.133C131.671 159.579 152.306 176.686 152.921 214.013C152.762 214.607 152.782 215.202 152.782 215.797Z" fill="#3CB371" stroke="black" stroke-width="5.66935" stroke-miterlimit="10"/>
<path d="M19.1557 196.747C24.2898 181.761 36.6791 170.125 41.4168 174.446C46.1545 178.767 38.7011 185.329 33.2696 205.588C27.8381 225.847 32.4172 234.43 27.0056 236.214C21.5939 237.998 13.0502 214.607 19.1557 196.747Z" fill="white"/>
<path d="M21.109 198.04L21.1085 198.042C17.8827 207.478 18.5489 218.237 20.669 226.366C21.7298 230.433 23.1909 233.987 24.8278 236.466C25.6398 237.695 26.5741 238.782 27.6318 239.503C28.711 240.238 30.1269 240.713 31.6357 240.216C32.6112 239.894 33.462 239.381 34.1455 238.627C34.817 237.886 35.2313 237.018 35.5024 236.125C36.0138 234.441 36.1172 232.266 36.2187 229.903C36.2267 229.716 36.2347 229.527 36.2429 229.334C36.4478 224.485 36.7372 217.634 39.2876 208.121C41.4876 199.915 44.0095 194.036 45.9395 189.537C46.3515 188.577 46.7365 187.679 47.0857 186.836C48.0497 184.506 48.8441 182.353 48.9907 180.43C49.1539 178.291 48.5194 176.413 46.8141 174.858C44.7985 173.019 42.1703 173.131 39.8781 173.992C37.5868 174.854 35.188 176.59 32.9119 178.82C28.3351 183.302 23.7795 190.245 21.109 198.04Z" fill="white" stroke="black" stroke-width="4.25202"/>
<path d="M85.6021 45.161C82.5295 19.6489 126.318 9.47976 153 25.7742C137.756 49.3437 98.9032 56.3808 85.6021 45.161Z" fill="#FBF1A9" stroke="black" stroke-width="5.66935" stroke-miterlimit="10"/>
</svg>
